<?xml version="1.0" encoding="UTF-8" standalone="no"?>
<svg
   xmlns:dc="http://purl.org/dc/elements/1.1/"
   xmlns:cc="http://creativecommons.org/ns#"
   xmlns:rdf="http://www.w3.org/1999/02/22-rdf-syntax-ns#"
   xmlns:svg="http://www.w3.org/2000/svg"
   xmlns="http://www.w3.org/2000/svg"
   viewBox="0 0 779.21198 774.30402"
   height="774.30402"
   width="779.21198"
   xml:space="preserve"
   id="svg2"
   version="1.1"><metadata
     id="metadata8"><rdf:RDF><cc:Work
         rdf:about=""><dc:format>image/svg+xml</dc:format><dc:type
           rdf:resource="http://purl.org/dc/dcmitype/StillImage" /></cc:Work></rdf:RDF></metadata><defs
     id="defs6"><clipPath
       id="clipPath18"
       clipPathUnits="userSpaceOnUse"><path
         id="path16"
         d="M 0,580.728 H 584.409 V 0 H 0 Z" /></clipPath></defs><g
     transform="matrix(1.3333333,0,0,-1.3333333,0,774.304)"
     id="g10"><g
       id="g12"><g
         clip-path="url(#clipPath18)"
         id="g14"><g
           transform="translate(533.9556,24.7026)"
           id="g20"><path
             id="path22"
             style="fill:#84b7d2;fill-opacity:1;fill-rule:nonzero;stroke:none"
             d="m 0,0 v -27.03 h -33.51 c -9.79,28.75 -35.51,100.68 -57.93,132.66 -28.38,40.47 -103.54,56.24 -103.54,56.24 73.05,23.65 94.43,88.29 96.18,125.78 1.75,37.49 2.8,69.02 -25.93,130.68 -17.99,38.61 -38.84,55.94 -51.91,63.49 l 7.94,4.31 h 24.18 l 26.27,-21 19.45,-29.45 13.76,-39.02 5.26,-20.46 5.68,-30.39 9.82,-39 -2.46,-35.1 -12.09,-39.03 -6.31,-31.4 -33.11,-23.12 -17.34,-14.19 50.24,-22.69 34.9,-26.19 22.46,-41.83 14.33,-32.99 z" /></g><g
           transform="translate(500.4455,-2.3275)"
           id="g24"><path
             id="path26"
             style="fill:#91ccec;fill-opacity:1;fill-rule:nonzero;stroke:none"
             d="m 0,0 h -410.05 l 7.36,47.52 11.81,45.88 31.81,55.17 31.94,22.76 8.52,2.33 -47.79,40.94 -33.14,48.48 1.78,46.22 12.12,37.68 10.98,21.3 -3.51,30.49 7.2,66.23 21.32,32 c 14.95,-9.99 34.45,-25.8 42.96,-44.63 14.71,-32.58 21.72,-49.4 21.72,-49.4 l 39.23,21 25.55,3.09 37.45,4.42 15.49,40.16 13.23,31.31 10.89,5.9 c 13.07,-7.55 33.92,-24.88 51.91,-63.49 28.73,-61.66 27.68,-93.19 25.93,-130.68 -1.75,-37.49 -23.13,-102.13 -96.18,-125.78 0,0 75.16,-15.77 103.54,-56.24 C -35.51,100.68 -9.79,28.75 0,0" /></g><g
           transform="translate(254.7055,421.6425)"
           id="g28"><path
             id="path30"
             style="fill:#83b9d4;fill-opacity:1;fill-rule:nonzero;stroke:none"
             d="m 0,0 -39.23,-21 c 0,0 -7.01,16.82 -21.72,49.4 -8.51,18.83 -28.01,34.64 -42.96,44.63 l 3.06,4.6 25.26,5.04 22.23,-12.45 20.3,-20.77 18.97,-33.84 5.34,-14.19 3.15,-2.1 z" /></g><g
           transform="translate(124.3796,385.927)"
           id="g32"><path
             id="path34"
             style="fill:none;stroke:#232422;stroke-width:14;stroke-linecap:round;stroke-linejoin:round;stroke-miterlimit:10;stroke-dasharray:none;stroke-opacity:1"
             d="m 0,0 c 0,0 -6.307,100.555 28.73,117.022 35.036,16.467 77.781,-33.635 96,-79.183" /></g><g
           transform="translate(219.3285,404.8467)"
           id="g36"><path
             id="path38"
             style="fill:none;stroke:#232422;stroke-width:14;stroke-linecap:round;stroke-linejoin:round;stroke-miterlimit:10;stroke-dasharray:none;stroke-opacity:1"
             d="M 0,0 C 0,0 47.65,25.927 93.197,20.672" /></g><g
           transform="translate(314.2774,413.2555)"
           id="g40"><path
             id="path42"
             style="fill:none;stroke:#232422;stroke-width:14;stroke-linecap:round;stroke-linejoin:round;stroke-miterlimit:10;stroke-dasharray:none;stroke-opacity:1"
             d="M 0,0 C 0,0 16.117,90.394 49.752,101.606 83.387,112.818 124.73,61.664 140.847,-16.818" /></g><g
           transform="translate(463.8832,370.511)"
           id="g44"><path
             id="path46"
             style="fill:none;stroke:#232422;stroke-width:14;stroke-linecap:round;stroke-linejoin:round;stroke-miterlimit:10;stroke-dasharray:none;stroke-opacity:1"
             d="m 0,0 c 0,0 35.387,-126.657 -63.416,-178.161 0,0 116.671,-34.16 133.489,-189.722" /></g><g
           transform="translate(389.9562,84.0876)"
           id="g48"><path
             id="path50"
             style="fill:none;stroke:#232422;stroke-width:14;stroke-linecap:round;stroke-linejoin:round;stroke-miterlimit:10;stroke-dasharray:none;stroke-opacity:1"
             d="M 0,0 16.818,-81.46" /></g><g
           transform="translate(147.6788,69.8978)"
           id="g52"><path
             id="path54"
             style="fill:none;stroke:#232422;stroke-width:14;stroke-linecap:round;stroke-linejoin:round;stroke-miterlimit:10;stroke-dasharray:none;stroke-opacity:1"
             d="M 0,0 -6.307,-69.898" /></g><g
           transform="translate(90.3942)"
           id="g56"><path
             id="path58"
             style="fill:none;stroke:#232422;stroke-width:14;stroke-linecap:round;stroke-linejoin:round;stroke-miterlimit:10;stroke-dasharray:none;stroke-opacity:1"
             d="m 0,0 c 15.766,163.445 91.445,171.328 91.445,171.328 0,0 -72,47.825 -79.883,96.701 -7.883,48.876 21.982,93.548 21.982,93.548" /></g><g
           transform="translate(68.3212,296.4088)"
           id="g60"><path
             id="path62"
             style="fill:none;stroke:#232422;stroke-width:14;stroke-linecap:round;stroke-linejoin:round;stroke-miterlimit:10;stroke-dasharray:none;stroke-opacity:1"
             d="M 0,0 H 29.431" /></g><g
           transform="translate(68.3212,263.2993)"
           id="g64"><path
             id="path66"
             style="fill:none;stroke:#232422;stroke-width:14;stroke-linecap:round;stroke-linejoin:round;stroke-miterlimit:10;stroke-dasharray:none;stroke-opacity:1"
             d="M 0,0 29.431,5.781" /></g><g
           transform="translate(400.4672,291.1533)"
           id="g68"><path
             id="path70"
             style="fill:none;stroke:#232422;stroke-width:12;stroke-linecap:round;stroke-linejoin:round;stroke-miterlimit:10;stroke-dasharray:none;stroke-opacity:1"
             d="M 0,0 34.686,1.577" /></g><g
           transform="translate(400.4672,267.5037)"
           id="g72"><path
             id="path74"
             style="fill:none;stroke:#232422;stroke-width:12;stroke-linecap:round;stroke-linejoin:round;stroke-miterlimit:10;stroke-dasharray:none;stroke-opacity:1"
             d="M 0,0 30.482,-4.555" /></g><g
           transform="translate(170.8029,283.5328)"
           id="g76"><path
             id="path78"
             style="fill:#fdfefa;fill-opacity:1;fill-rule:nonzero;stroke:none"
             d="m 0,0 c 0,-14.44 -7.588,-26.146 -16.949,-26.146 -9.361,0 -16.949,11.706 -16.949,26.146 0,14.44 7.588,26.146 16.949,26.146 C -7.588,26.146 0,14.44 0,0" /></g><g
           transform="translate(170.8029,283.5328)"
           id="g80"><path
             id="path82"
             style="fill:none;stroke:#232422;stroke-width:13.11600018;stroke-linecap:round;stroke-linejoin:round;stroke-miterlimit:10;stroke-dasharray:none;stroke-opacity:1"
             d="m 0,0 c 0,-14.44 -7.588,-26.146 -16.949,-26.146 -9.361,0 -16.949,11.706 -16.949,26.146 0,14.44 7.588,26.146 16.949,26.146 C -7.588,26.146 0,14.44 0,0 Z" /></g><g
           transform="translate(346.4234,283.5328)"
           id="g84"><path
             id="path86"
             style="fill:#fdfefa;fill-opacity:1;fill-rule:nonzero;stroke:none"
             d="m 0,0 c 0,-14.44 -7.588,-26.146 -16.949,-26.146 -9.361,0 -16.949,11.706 -16.949,26.146 0,14.44 7.588,26.146 16.949,26.146 C -7.588,26.146 0,14.44 0,0" /></g><g
           transform="translate(346.4234,283.5328)"
           id="g88"><path
             id="path90"
             style="fill:none;stroke:#232422;stroke-width:13.11600018;stroke-linecap:round;stroke-linejoin:round;stroke-miterlimit:10;stroke-dasharray:none;stroke-opacity:1"
             d="m 0,0 c 0,-14.44 -7.588,-26.146 -16.949,-26.146 -9.361,0 -16.949,11.706 -16.949,26.146 0,14.44 7.588,26.146 16.949,26.146 C -7.588,26.146 0,14.44 0,0 Z" /></g><g
           transform="translate(242.9432,282.9259)"
           id="g92"><path
             id="path94"
             style="fill:#232422;fill-opacity:1;fill-rule:nonzero;stroke:none"
             d="m 0,0 c -2.52,-0.594 -5.115,-0.779 -7.697,-0.579 -9.662,0.747 -32.807,1.657 -36.396,-6.347 -4.554,-10.16 -4.729,-31.708 26.628,-38.015 31.358,-6.306 56.916,7.008 58.843,22.917 C 42.582,-12.086 39.977,2.008 22.809,2.184 11.8,2.296 4.105,0.968 0,0" /></g><g
           transform="translate(242.9432,282.9259)"
           id="g96"><path
             id="path98"
             style="fill:none;stroke:#232422;stroke-width:13.11600018;stroke-linecap:round;stroke-linejoin:round;stroke-miterlimit:10;stroke-dasharray:none;stroke-opacity:1"
             d="m 0,0 c -2.52,-0.594 -5.115,-0.779 -7.697,-0.579 -9.662,0.747 -32.807,1.657 -36.396,-6.347 -4.554,-10.16 -4.729,-31.708 26.628,-38.015 31.358,-6.306 56.916,7.008 58.843,22.917 C 42.582,-12.086 39.977,2.008 22.809,2.184 11.8,2.296 4.105,0.968 0,0 Z" /></g><g
           transform="translate(221.8909,250.7458)"
           id="g100"><path
             id="path102"
             style="fill:#fedeeb;fill-opacity:1;fill-rule:nonzero;stroke:none"
             d="m 0,0 c -0.689,-1.483 0.164,-3.234 1.745,-3.653 8.177,-2.165 31.488,-7.12 43.069,3.068 14.19,12.481 7.227,21.679 4.599,22.73 C 46.875,23.16 11.862,25.523 0,0" /></g></g></g></g></svg>